<?xml version="1.0" encoding="utf-8"?>
<!-- Generator: Adobe Illustrator 16.0.0, SVG Export Plug-In . SVG Version: 6.00 Build 0)  -->
<!DOCTYPE svg PUBLIC "-//W3C//DTD SVG 1.1//EN" "http://www.w3.org/Graphics/SVG/1.1/DTD/svg11.dtd">
<svg version="1.1" id="Capa_1" xmlns="http://www.w3.org/2000/svg" xmlns:xlink="http://www.w3.org/1999/xlink" x="0px" y="0px"
	 width="595.279px" height="132px" viewBox="0 353.445 595.279 132" enable-background="new 0 353.445 595.279 132"
	 xml:space="preserve">
<path fill="#FFFFFF" d="M307.527,438.026c-0.982,0.815-2.384,1.899-4.936,1.899c-2.551,0-4.034-1.149-4.034-3.135
	c0-3.201,3.117-4.685,7.819-4.685h1.149L307.527,438.026L307.527,438.026z M323.566,449.047c-0.649-3.051-1.317-7.569-1.317-14.072
	v-11.271c0-11.854-5.435-16.223-18.271-16.223c-9.138,0-15.224,3.617-17.939,6.003l5.918,8.72c1.484-0.984,5.27-3.451,10.121-3.451
	c4.367,0,5.436,1.233,5.436,3.534v1.234h-1.15c-11.354,0-21.558,4.268-21.558,14.638c0,7.82,5.669,11.854,12.672,11.854
	c5.519,0,9.053-2.801,10.786-4.935c0.084,1.232,0.417,2.968,0.816,3.951h14.488L323.566,449.047L323.566,449.047z M277.733,449.964
	v-41.48h-14.972v40.229c0,6.336-0.9,7.82-4.285,7.82c-1.65,0-2.885-0.417-3.451-0.567l-2.551,11.188
	c1.483,0.5,4.352,1.316,9.47,1.316C273.298,468.471,277.733,461.318,277.733,449.964 M278.734,396.878
	c0-4.368-3.451-8.069-8.486-8.069c-5.019,0-8.47,3.701-8.47,8.069s3.451,8.153,8.47,8.153
	C275.267,405.031,278.734,401.246,278.734,396.878 M240.303,438.026c-0.983,0.815-2.385,1.899-4.937,1.899
	c-2.551,0-4.034-1.149-4.034-3.135c0-3.201,3.134-4.685,7.819-4.685h1.149v5.92H240.303z M256.342,449.047
	c-0.649-3.051-1.316-7.569-1.316-14.072v-11.271c0-11.854-5.437-16.223-18.257-16.223c-9.137,0-15.223,3.617-17.939,6.003
	l5.937,8.72c1.483-0.984,5.269-3.451,10.12-3.451c4.367,0,5.436,1.233,5.436,3.534v1.234h-1.15
	c-11.354,0-21.558,4.268-21.558,14.638c0,7.82,5.686,11.854,12.671,11.854c5.52,0,9.054-2.801,10.787-4.935
	c0.084,1.232,0.417,2.968,0.817,3.951h14.455v0.018H256.342z M214.71,444.045l-6.252-10.87c-2.551,1.733-5.669,3.868-11.604,3.868
	c-8.471,0-12.754-6.67-12.754-15.873c0-8.803,4.518-14.972,12.587-14.972c4.853,0,7.819,1.232,10.788,2.968l6.752-11.354
	c-4.451-2.967-10.037-4.519-17.289-4.519c-19.824,0-29.461,13.405-29.461,28.394c0,14.973,9.22,28.394,29.127,28.394
	C204.857,450.047,211.926,446.513,214.71,444.045"/>
<path fill="#FFFFFF" d="M380.987,392.06h-16.456l-9.437,30.095c-1.367,4.201-2.567,9.17-2.567,9.17c-0.167,0-1.367-4.886-2.751-9.17
	l-9.854-30.095h-17.656l22.023,57.104h15.438L380.987,392.06z M557.583,437.659c-1.033,0.851-2.483,1.968-5.151,1.968
	c-2.65,0-4.201-1.2-4.201-3.251c0-3.352,3.251-4.886,8.137-4.886h1.2v6.169H557.583z M574.306,449.146
	c-0.685-3.168-1.367-7.887-1.367-14.655v-11.737c0-12.338-5.652-16.89-19.022-16.89c-9.521,0-15.855,3.769-18.69,6.253l6.169,9.086
	c1.551-1.033,5.485-3.602,10.537-3.602c4.552,0,5.652,1.283,5.652,3.686v1.283h-1.2c-11.821,0-22.458,4.451-22.458,15.256
	c0,8.136,5.919,12.338,13.204,12.338c5.752,0,9.438-2.918,11.236-5.136c0.084,1.284,0.435,3.085,0.852,4.118H574.306
	L574.306,449.146z M528.473,449.146V419.92c0-8.053-3.335-14.056-12.854-14.056c-6.687,0-10.638,3.085-13.122,5.836v-4.802h-15.088
	v42.265h15.438v-27.276c0.851-1.032,3.084-3.435,6.002-3.435c3.001,0,4.202,1.284,4.202,4.719v25.977L528.473,449.146
	L528.473,449.146z M478.705,406.882h-15.605v42.265h15.605V406.882z M479.739,394.794c0-4.552-3.602-8.403-8.837-8.403
	c-5.218,0-8.836,3.851-8.836,8.403s3.603,8.486,8.836,8.486C476.137,403.28,479.739,399.346,479.739,394.794 M457.914,446.746
	l-4.201-9.954c-1.367,0.601-3.686,1.885-8.152,1.885c-6.002,0-9.003-4.118-9.003-11.055c0-6.77,3.334-10.453,8.652-10.453
	c3.7,0,6.253,0.867,7.97,1.717l4.201-10.203c-1.968-1.2-6.085-2.835-12.954-2.835c-14.488,0-24.176,8.138-24.176,22.292
	c0,14.139,9.521,22.024,23.824,22.024C452.078,450.181,455.763,447.946,457.914,446.746 M390.723,422.921
	c0.684-4.535,2.567-6.603,6.086-6.603c3.685,0,4.969,2.733,5.052,6.603H390.723z M391.24,432.857h25.292
	c1.551-17.489-4.969-27.011-19.54-27.011c-12.088,0-22.292,7.971-22.292,22.024c0,14.056,8.92,22.292,23.742,22.292
	c9.337,0,13.372-2.234,16.64-3.936l-4.552-9.271c-2.233,0.95-4.802,2.234-10.454,2.234
	C394.926,439.21,392.091,437.06,391.24,432.857"/>
<g>
	<g>
		<g>
			<g>
				<defs>
					<rect id="SVGID_1_" x="38.147" y="364.833" width="106.487" height="103.304"/>
				</defs>
				<clipPath id="SVGID_2_">
					<use xlink:href="#SVGID_1_"  overflow="visible"/>
				</clipPath>
				<path clip-path="url(#SVGID_2_)" fill="#E40245" d="M38.147,416.785l37.964-15.989v-11.837l0.017-0.017
					c12.222-1.817,22.024-7.436,30.527-16.539v0.017l37.979,30.078V364.85H38.147V416.785z"/>
			</g>
		</g>
		<g>
			<g>
				<defs>
					<rect id="SVGID_3_" x="38.147" y="364.833" width="106.487" height="103.304"/>
				</defs>
				<clipPath id="SVGID_4_">
					<use xlink:href="#SVGID_3_"  overflow="visible"/>
				</clipPath>
				<path clip-path="url(#SVGID_4_)" fill="#FFFFFF" d="M76.16,450.931h30.494V372.42v-0.017
					c-8.503,9.12-18.307,14.722-30.527,16.539H76.11v11.837l-37.964,16.006v11.555l37.979-16.156v-11.421l12.188-5.167v11.419
					l-12.154,5.152v11.271l12.188-5.169v11.305l-12.188,5.168v-11.287L38.147,439.61v11.286l38.014-16.173L76.16,450.931
					L76.16,450.931z"/>
			</g>
		</g>
	</g>
	<polygon fill="#EE7D07" points="76.127,412.184 38.147,428.34 38.147,439.644 76.16,423.471 76.16,423.454 76.16,423.454 
		76.16,412.167 	"/>
	<polygon fill="#EE7D07" points="38.147,450.931 38.147,450.931 76.16,450.931 76.16,434.759 	"/>
	<polygon fill="#EE7D07" points="76.16,412.167 88.315,407.015 88.315,395.627 76.127,400.813 76.127,412.184 	"/>
	<path fill="#FF6B00" d="M76.127,412.184l0.033-0.017L76.127,412.184z"/>
	<polygon fill="#EE7D07" points="76.16,423.471 76.16,434.759 88.348,429.59 88.348,418.286 76.16,423.454 	"/>
	<polygon fill="#FF6B00" points="76.16,423.454 76.16,423.471 76.177,423.471 76.177,423.454 	"/>
	<polygon fill="#EE7D07" points="106.689,450.931 144.635,450.931 144.635,402.497 106.655,372.419 	"/>
	<polygon fill="#FF6B00" points="106.655,450.931 106.689,450.931 106.655,372.419 	"/>
	<polygon fill="#02509C" points="106.689,450.931 106.655,450.931 76.177,450.931 38.147,450.931 38.147,468.137 144.635,468.137 
		144.635,450.931 	"/>
</g>
</svg>
